<svg id="visual" viewBox="0 0 900 600" width="900" height="600" xmlns="http://www.w3.org/2000/svg" xmlns:xlink="http://www.w3.org/1999/xlink" version="1.1"><g stroke-width="1" stroke-linejoin="bevel"><path d="M426 274L422 222L326 303Z" fill="#277297" stroke="#277297"></path><path d="M422 222L307 172L326 303Z" fill="#0c2435" stroke="#0c2435"></path><path d="M326 303L379 408L426 274Z" fill="#19435d" stroke="#19435d"></path><path d="M307 172L223 324L326 303Z" fill="#246688" stroke="#246688"></path><path d="M326 303L260 400L379 408Z" fill="#081a28" stroke="#081a28"></path><path d="M476 427L518 309L426 274Z" fill="#0c2435" stroke="#0c2435"></path><path d="M426 274L518 309L422 222Z" fill="#0c2435" stroke="#0c2435"></path><path d="M413 77L326 88L307 172Z" fill="#205a7a" stroke="#205a7a"></path><path d="M307 172L184 171L223 324Z" fill="#246688" stroke="#246688"></path><path d="M413 77L307 172L422 222Z" fill="#19435d" stroke="#19435d"></path><path d="M223 324L260 400L326 303Z" fill="#297ea6" stroke="#297ea6"></path><path d="M518 309L528 171L422 222Z" fill="#0c2435" stroke="#0c2435"></path><path d="M515 130L413 77L422 222Z" fill="#297ea6" stroke="#297ea6"></path><path d="M528 171L515 130L422 222Z" fill="#297ea6" stroke="#297ea6"></path><path d="M172 78L184 171L307 172Z" fill="#15384f" stroke="#15384f"></path><path d="M379 408L476 427L426 274Z" fill="#081a28" stroke="#081a28"></path><path d="M431 537L476 427L379 408Z" fill="#205a7a" stroke="#205a7a"></path><path d="M223 324L228 422L260 400Z" fill="#205a7a" stroke="#205a7a"></path><path d="M260 400L330 468L379 408Z" fill="#205a7a" stroke="#205a7a"></path><path d="M86 424L228 422L223 324Z" fill="#205a7a" stroke="#205a7a"></path><path d="M228 422L330 468L260 400Z" fill="#112e42" stroke="#112e42"></path><path d="M574 371L590 324L518 309Z" fill="#297ea6" stroke="#297ea6"></path><path d="M518 309L590 324L528 171Z" fill="#19435d" stroke="#19435d"></path><path d="M528 171L625 139L515 130Z" fill="#19435d" stroke="#19435d"></path><path d="M476 427L574 371L518 309Z" fill="#112e42" stroke="#112e42"></path><path d="M413 77L313 0L326 88Z" fill="#19435d" stroke="#19435d"></path><path d="M326 88L172 78L307 172Z" fill="#297ea6" stroke="#297ea6"></path><path d="M435 0L313 0L413 77Z" fill="#1d4e6b" stroke="#1d4e6b"></path><path d="M313 0L172 78L326 88Z" fill="#00101c" stroke="#00101c"></path><path d="M509 0L435 0L413 77Z" fill="#205a7a" stroke="#205a7a"></path><path d="M431 537L507 475L476 427Z" fill="#205a7a" stroke="#205a7a"></path><path d="M476 427L507 475L574 371Z" fill="#205a7a" stroke="#205a7a"></path><path d="M99 170L93 264L184 171Z" fill="#297ea6" stroke="#297ea6"></path><path d="M184 171L93 264L223 324Z" fill="#19435d" stroke="#19435d"></path><path d="M85 129L99 170L184 171Z" fill="#205a7a" stroke="#205a7a"></path><path d="M669 212L639 184L590 324Z" fill="#081a28" stroke="#081a28"></path><path d="M590 324L639 184L528 171Z" fill="#246688" stroke="#246688"></path><path d="M515 130L509 0L413 77Z" fill="#205a7a" stroke="#205a7a"></path><path d="M639 184L625 139L528 171Z" fill="#205a7a" stroke="#205a7a"></path><path d="M619 0L509 0L515 130Z" fill="#00101c" stroke="#00101c"></path><path d="M362 600L431 537L330 468Z" fill="#205a7a" stroke="#205a7a"></path><path d="M330 468L431 537L379 408Z" fill="#0c2435" stroke="#0c2435"></path><path d="M674 283L669 212L590 324Z" fill="#00101c" stroke="#00101c"></path><path d="M639 184L669 86L625 139Z" fill="#15384f" stroke="#15384f"></path><path d="M172 78L85 129L184 171Z" fill="#246688" stroke="#246688"></path><path d="M0 174L0 315L93 264Z" fill="#0c2435" stroke="#0c2435"></path><path d="M507 475L583 473L574 371Z" fill="#112e42" stroke="#112e42"></path><path d="M687 401L674 283L590 324Z" fill="#277297" stroke="#277297"></path><path d="M506 600L583 473L507 475Z" fill="#297ea6" stroke="#297ea6"></path><path d="M313 0L186 0L172 78Z" fill="#0c2435" stroke="#0c2435"></path><path d="M172 78L111 0L85 129Z" fill="#277297" stroke="#277297"></path><path d="M687 401L590 324L574 371Z" fill="#246688" stroke="#246688"></path><path d="M86 424L171 508L228 422Z" fill="#205a7a" stroke="#205a7a"></path><path d="M228 422L171 508L330 468Z" fill="#0c2435" stroke="#0c2435"></path><path d="M0 315L86 424L93 264Z" fill="#00101c" stroke="#00101c"></path><path d="M93 264L86 424L223 324Z" fill="#112e42" stroke="#112e42"></path><path d="M669 212L669 86L639 184Z" fill="#297ea6" stroke="#297ea6"></path><path d="M625 139L619 0L515 130Z" fill="#0c2435" stroke="#0c2435"></path><path d="M829 83L669 86L669 212Z" fill="#112e42" stroke="#112e42"></path><path d="M333 600L362 600L330 468Z" fill="#081a28" stroke="#081a28"></path><path d="M431 537L506 600L507 475Z" fill="#277297" stroke="#277297"></path><path d="M171 508L333 600L330 468Z" fill="#112e42" stroke="#112e42"></path><path d="M583 473L687 401L574 371Z" fill="#205a7a" stroke="#205a7a"></path><path d="M765 0L674 0L669 86Z" fill="#246688" stroke="#246688"></path><path d="M669 86L619 0L625 139Z" fill="#112e42" stroke="#112e42"></path><path d="M186 0L111 0L172 78Z" fill="#19435d" stroke="#19435d"></path><path d="M0 174L93 264L99 170Z" fill="#19435d" stroke="#19435d"></path><path d="M0 174L99 170L85 129Z" fill="#15384f" stroke="#15384f"></path><path d="M0 84L0 174L85 129Z" fill="#246688" stroke="#246688"></path><path d="M362 600L506 600L431 537Z" fill="#00101c" stroke="#00101c"></path><path d="M583 473L734 473L687 401Z" fill="#00101c" stroke="#00101c"></path><path d="M0 437L67 486L86 424Z" fill="#0c2435" stroke="#0c2435"></path><path d="M86 424L67 486L171 508Z" fill="#112e42" stroke="#112e42"></path><path d="M171 508L173 600L333 600Z" fill="#277297" stroke="#277297"></path><path d="M113 600L173 600L171 508Z" fill="#00101c" stroke="#00101c"></path><path d="M802 302L669 212L674 283Z" fill="#205a7a" stroke="#205a7a"></path><path d="M669 86L674 0L619 0Z" fill="#19435d" stroke="#19435d"></path><path d="M111 0L0 84L85 129Z" fill="#205a7a" stroke="#205a7a"></path><path d="M0 315L0 437L86 424Z" fill="#1d4e6b" stroke="#1d4e6b"></path><path d="M67 486L113 600L171 508Z" fill="#277297" stroke="#277297"></path><path d="M506 600L608 600L583 473Z" fill="#277297" stroke="#277297"></path><path d="M608 600L734 473L583 473Z" fill="#19435d" stroke="#19435d"></path><path d="M687 401L802 302L674 283Z" fill="#19435d" stroke="#19435d"></path><path d="M0 600L113 600L67 486Z" fill="#112e42" stroke="#112e42"></path><path d="M734 473L770 422L687 401Z" fill="#112e42" stroke="#112e42"></path><path d="M770 422L802 302L687 401Z" fill="#277297" stroke="#277297"></path><path d="M0 437L0 502L67 486Z" fill="#1d4e6b" stroke="#1d4e6b"></path><path d="M111 0L0 0L0 84Z" fill="#00101c" stroke="#00101c"></path><path d="M900 276L828 224L802 302Z" fill="#0c2435" stroke="#0c2435"></path><path d="M802 302L828 224L669 212Z" fill="#00101c" stroke="#00101c"></path><path d="M829 83L765 0L669 86Z" fill="#1d4e6b" stroke="#1d4e6b"></path><path d="M828 224L829 83L669 212Z" fill="#277297" stroke="#277297"></path><path d="M734 473L781 528L770 422Z" fill="#1d4e6b" stroke="#1d4e6b"></path><path d="M900 366L900 276L802 302Z" fill="#19435d" stroke="#19435d"></path><path d="M724 600L781 528L734 473Z" fill="#081a28" stroke="#081a28"></path><path d="M608 600L724 600L734 473Z" fill="#00101c" stroke="#00101c"></path><path d="M0 502L0 600L67 486Z" fill="#0c2435" stroke="#0c2435"></path><path d="M900 366L802 302L770 422Z" fill="#246688" stroke="#246688"></path><path d="M828 224L900 169L829 83Z" fill="#00101c" stroke="#00101c"></path><path d="M900 276L900 169L828 224Z" fill="#112e42" stroke="#112e42"></path><path d="M829 83L900 0L765 0Z" fill="#246688" stroke="#246688"></path><path d="M900 478L900 366L770 422Z" fill="#0c2435" stroke="#0c2435"></path><path d="M900 169L900 89L829 83Z" fill="#0c2435" stroke="#0c2435"></path><path d="M836 600L900 478L781 528Z" fill="#081a28" stroke="#081a28"></path><path d="M781 528L900 478L770 422Z" fill="#205a7a" stroke="#205a7a"></path><path d="M724 600L836 600L781 528Z" fill="#15384f" stroke="#15384f"></path><path d="M900 89L900 0L829 83Z" fill="#246688" stroke="#246688"></path><path d="M836 600L900 600L900 478Z" fill="#00101c" stroke="#00101c"></path></g></svg>