<?xml version="1.0" encoding="iso-8859-1"?>
<!-- Generator: Adobe Illustrator 19.0.0, SVG Export Plug-In . SVG Version: 6.00 Build 0)  -->
<svg version="1.1" id="Layer_1" xmlns="http://www.w3.org/2000/svg" xmlns:xlink="http://www.w3.org/1999/xlink" x="0px" y="0px"
	 viewBox="0 0 208.193 208.193" style="enable-background:new 0 0 208.193 208.193;" xml:space="preserve">
<g>
	<path style="fill:#1D1D1B;" d="M195.198,28.009c1.125-0.362,2.532,0.201,2.411,1.688c-5.506,59.957-16.034,118.588-30.099,177.179
		c-0.12,0.482-0.522,0.683-0.924,0.723c-0.402,0.442-1.005,0.683-1.728,0.563c-50.473-9.966-101.147-19.128-151.54-29.175
		c-0.522-0.121-0.804-0.482-0.924-0.884c-0.924,0-1.929-0.603-1.808-1.688c3.054-28.21,7.314-56.34,11.855-84.35
		c4.821-29.858,8.236-61.765,17.72-90.578c0.08-0.241,0.321-0.402,0.522-0.442C40.844,0.482,41.246,0,41.889,0
		c50.955,1.567,102.996,13.141,151.982,26.522C194.715,26.764,195.117,27.366,195.198,28.009z M193.791,30.22
		c-0.281,0.08-0.603,0.08-0.924,0C142.755,17.28,92.604,10.609,41.648,2.532c-1.125,12.297-3.215,24.553-5.586,36.81
		c-3.014,15.391-6.43,30.782-8.961,46.093c-4.983,30.22-8.881,60.52-13.02,90.86c50.433,4.22,102.715,14.547,151.42,28.251
		c2.17-27.527,8.801-55.014,15.271-81.778c3.657-15.07,6.148-30.139,8.117-45.37C190.898,61.765,192.304,46.053,193.791,30.22z"/>
	<path style="fill:#1D1D1B;" d="M185.674,76.955c0,0.04-0.04,0.08-0.04,0.161c-0.643,2.25-0.965,4.541-0.924,6.872
		c0,0.482-0.764,0.603-0.884,0.121c-0.161-0.844-0.241-1.688-0.241-2.491c0-1.648,0.321-3.215,0.924-4.822
		C184.749,76.192,185.674,76.353,185.674,76.955z"/>
	<path style="fill:#1D1D1B;" d="M182.057,81.175c0.241-0.522,1.005-0.121,0.924,0.402c-0.522,2.451-1.326,4.662-2.25,6.952
		c-0.201,0.482-0.844,0.362-0.844-0.08c0-0.04,0-0.08,0-0.12C180.449,85.837,181.052,83.506,182.057,81.175z"/>
	<path style="fill:#1D1D1B;" d="M177.034,43.24c1.406,0.281,1.607,1.688,1.045,2.652c0.08,0.241,0.121,0.522,0.08,0.804
		c-1.527,13.543-3.295,27.165-5.385,40.708c-3.858,24.594-8.801,49.067-15.632,72.897c-0.121,0.402-0.402,0.643-0.683,0.764
		c-0.322,0.964-1.246,1.849-2.572,1.648c-39.061-5.506-78.844-10.006-117.463-18.164c-0.723-0.12-0.844-0.884-0.603-1.447
		c-0.442-0.281-0.764-0.723-0.683-1.366c4.34-32.751,9.122-66.025,16.637-98.375c1.648-7.032,3.416-14.065,5.345-21.017
		c0.241-0.764,0.884-0.924,1.406-0.683c0.121-0.201,0.281-0.322,0.522-0.281C98.39,24.272,138.375,35.444,177.034,43.24z
		 M174.18,46.696c0-0.04,0.04-0.08,0.04-0.121C136.366,39.462,95.859,34.6,59.249,22.785c0,0.08,0.04,0.08,0.04,0.161
		c-6.671,39.824-15.11,79.206-20.776,119.231c-0.04,0.201-0.121,0.322-0.161,0.482c39.02,3.255,77.96,10.167,116.659,15.954
		c0.04,0,0.04,0,0.04,0C162.446,121.361,169.72,84.51,174.18,46.696z"/>
	<path style="fill:#99D9F1;" d="M174.221,46.575c0,0.04-0.04,0.08-0.04,0.121c-4.461,37.815-11.734,74.665-19.128,111.917
		c0,0,0,0-0.04,0c-38.699-5.787-77.639-12.699-116.659-15.954c0.04-0.161,0.12-0.281,0.161-0.482
		C44.18,102.152,52.619,62.77,59.29,22.946c0-0.08-0.04-0.08-0.04-0.161C95.859,34.6,136.366,39.462,174.221,46.575z
		 M165.661,70.124c0.643-2.13,0.764-4.26,0.442-6.43c-0.12-0.844-1.447-0.603-1.407,0.201c0,1.969-0.12,3.858-0.482,5.827
		C164.054,70.646,165.38,71.048,165.661,70.124z M162.406,76.232c1.206-2.25,1.406-4.581,0.643-7.033
		c-0.201-0.643-1.165-0.362-1.005,0.281c0.482,2.13,0.161,4.139-0.723,6.108C161,76.313,162.004,76.915,162.406,76.232z
		 M144.162,87.163c1.326-0.321,1.045-2.451-0.321-2.411c-3.697,0.08-7.153,0.281-10.77,0c-0.804-5.305-2.813-10.368-6.108-14.748
		c1.487-1.607,2.974-3.255,4.219-5.104c0.643-0.964-0.804-1.969-1.607-1.206c-1.447,1.406-2.692,3.054-3.938,4.661
		c-3.697-4.26-8.76-7.675-15.391-9.645c-0.281-0.08-0.522-0.08-0.764-0.04c1.005-2.492,1.567-5.224,1.326-7.876
		c-0.12-1.165-1.929-1.608-2.25-0.281c-0.683,3.175-1.045,6.43-1.768,9.604c0,0.161,0.04,0.281,0.08,0.402
		c-5.666-1.125-10.689-0.442-14.989,1.527c-0.643-2.451-1.286-4.903-2.492-7.193c-0.522-1.045-1.929-0.281-1.768,0.723
		c0.442,2.612,1.447,5.023,2.492,7.394c-5.666,3.215-9.966,8.72-12.659,15.15c-2.291-0.482-4.702-0.844-6.952-0.804
		c-1.206,0.04-1.447,1.728-0.281,2.09c1.969,0.603,4.179,0.844,6.39,0.964c-2.371,6.751-3.054,14.266-1.808,21.178
		c-1.849,0.643-3.737,1.045-5.827,1.246c-1.366,0.161-1.407,2.049,0,2.17c2.21,0.201,4.34-0.321,6.349-1.246
		c1.849,7.434,6.148,13.824,13.101,17.32c-0.362,0.482-0.723,0.924-1.125,1.407c-0.924,1.165-2.049,2.331-2.692,3.697
		c-0.522,1.125,0.804,2.25,1.808,1.366c1.527-1.447,2.893-3.536,4.019-5.546c2.25,0.884,4.702,1.567,7.474,1.848
		c5.827,0.563,10.971-0.241,15.472-2.009c0.402,2.974,1.286,6.188,2.974,8.399c0.723,0.964,2.331,0.442,2.049-0.884
		c-0.402-1.768-1.326-3.416-1.929-5.144c-0.362-1.085-0.683-2.21-1.045-3.295c5.586-2.733,9.886-7.073,12.94-12.216
		c2.009,1.648,4.099,3.255,6.309,4.461c1.005,0.523,2.13-0.804,1.246-1.648c-1.889-1.808-4.179-3.335-6.47-4.782
		c3.094-6.028,4.42-12.98,3.858-19.771C136.808,87.766,140.746,88.047,144.162,87.163z M138.536,141.212
		c-0.04,1.005,1.567,1.005,1.527,0c0-1.005-0.04-1.969-0.121-2.974c-0.08-0.844-1.206-0.844-1.286,0
		C138.576,139.243,138.536,140.208,138.536,141.212z M65.076,48.986c0.201-0.723-0.844-1.005-1.085-0.322
		c-0.402,1.005-0.683,2.009-0.964,3.054c-0.201,0.683,0.844,0.965,1.085,0.281C64.474,50.996,64.835,50.031,65.076,48.986z
		 M61.058,47.982c0.201-0.683-0.844-1.125-1.125-0.482c-0.764,1.648-0.924,3.175-0.643,4.983c0.08,0.643,1.165,0.482,1.125-0.161
		C60.375,50.835,60.616,49.388,61.058,47.982z"/>
	<path style="fill:#1D1D1B;" d="M167.912,135.426c0.281-1.125,2.17-0.884,2.049,0.281c-0.12,1.125-0.321,2.21-0.522,3.295
		c-0.241,1.366-2.291,0.764-2.09-0.563C167.51,137.435,167.67,136.43,167.912,135.426z"/>
	<path style="fill:#1D1D1B;" d="M166.545,36.288c0.643,0.241,0.362,1.045-0.241,0.965c-2.049-0.281-4.059-1.005-6.028-1.567
		c-0.522-0.161-0.322-0.924,0.241-0.844C162.527,35.283,164.616,35.564,166.545,36.288z"/>
	<path style="fill:#1D1D1B;" d="M166.103,63.694c0.322,2.17,0.201,4.3-0.442,6.43c-0.281,0.924-1.607,0.522-1.447-0.402
		c0.362-1.969,0.482-3.858,0.482-5.827C164.656,63.091,165.983,62.85,166.103,63.694z"/>
	<path style="fill:#1D1D1B;" d="M164.375,190.842c0.241,1.527,0.161,2.813-0.402,4.3c-0.281,0.643-1.326,0.362-1.085-0.281
		c0.482-1.286,0.643-2.532,0.563-3.898C163.371,190.44,164.255,190.319,164.375,190.842z"/>
	<path style="fill:#1D1D1B;" d="M164.054,32.269c0.603,0.08,0.442,1.125-0.161,1.045c-2.21-0.281-4.42-0.723-6.631-1.165
		c-0.482-0.08-0.362-0.924,0.12-0.844C159.593,31.586,161.843,31.827,164.054,32.269z"/>
	<path style="fill:#1D1D1B;" d="M163.893,37.132c0.201,0,0.201,0.241,0,0.241C163.732,37.373,163.732,37.132,163.893,37.132z"/>
	<path style="fill:#1D1D1B;" d="M163.049,69.2c0.764,2.451,0.563,4.782-0.643,7.033c-0.402,0.683-1.407,0.08-1.085-0.643
		c0.884-1.969,1.206-3.978,0.723-6.108C161.884,68.838,162.848,68.557,163.049,69.2z"/>
	<path style="fill:#1D1D1B;" d="M160.879,186.783c0.161-0.683,1.165-0.362,1.045,0.322c-0.241,1.688-0.563,3.335-0.964,5.023
		c-0.161,0.764-1.286,0.442-1.125-0.322C160.116,190.118,160.477,188.471,160.879,186.783z"/>
	<path style="fill:#1D1D1B;" d="M143.84,84.752c1.366-0.04,1.648,2.09,0.321,2.411c-3.416,0.884-7.354,0.603-10.85-0.241
		c0.563,6.791-0.764,13.743-3.858,19.771c2.291,1.447,4.581,2.974,6.47,4.782c0.884,0.844-0.241,2.17-1.246,1.648
		c-2.21-1.205-4.3-2.813-6.309-4.461c-3.054,5.144-7.354,9.484-12.94,12.216c0.362,1.085,0.683,2.21,1.045,3.295
		c0.603,1.728,1.527,3.376,1.929,5.144c0.281,1.326-1.326,1.848-2.049,0.884c-1.688-2.21-2.572-5.425-2.974-8.399
		c-4.501,1.768-9.645,2.572-15.472,2.009c-2.773-0.281-5.224-0.964-7.474-1.848c-1.125,2.009-2.492,4.099-4.019,5.546
		c-1.005,0.884-2.331-0.241-1.808-1.366c0.643-1.366,1.768-2.532,2.692-3.697c0.402-0.482,0.763-0.924,1.125-1.407
		c-6.952-3.496-11.252-9.886-13.101-17.32c-2.009,0.924-4.139,1.447-6.349,1.246c-1.407-0.121-1.366-2.009,0-2.17
		c2.09-0.201,3.978-0.603,5.827-1.246c-1.246-6.912-0.563-14.427,1.808-21.178c-2.21-0.12-4.42-0.362-6.39-0.964
		c-1.165-0.362-0.924-2.049,0.281-2.09c2.25-0.04,4.661,0.322,6.952,0.804c2.693-6.43,6.992-11.935,12.659-15.15
		c-1.045-2.371-2.049-4.782-2.492-7.394c-0.161-1.005,1.246-1.768,1.768-0.723c1.205,2.291,1.848,4.742,2.492,7.193
		c4.3-1.969,9.323-2.652,14.989-1.527c-0.04-0.121-0.08-0.241-0.08-0.402c0.723-3.175,1.085-6.43,1.768-9.604
		c0.322-1.326,2.13-0.884,2.25,0.281c0.241,2.652-0.322,5.385-1.326,7.876c0.241-0.04,0.482-0.04,0.764,0.04
		c6.631,1.969,11.694,5.385,15.391,9.645c1.246-1.607,2.492-3.255,3.938-4.661c0.804-0.764,2.25,0.241,1.607,1.206
		c-1.246,1.849-2.733,3.496-4.219,5.104c3.295,4.38,5.304,9.444,6.108,14.748C136.687,85.033,140.143,84.832,143.84,84.752z
		 M125.797,105.206c8.198-14.386,3.094-35.082-15.311-42.316c-0.161,0.08-0.281,0.121-0.442,0.121
		c-15.391-2.692-25.076,5.465-29.255,16.356c0.08,0.362-0.04,0.764-0.362,0.964c-6.59,18.686,2.572,44.566,26.683,38.618
		c8.72-2.17,14.829-7.193,18.485-13.422C125.676,105.407,125.717,105.327,125.797,105.206z"/>
	<path style="fill:#1D1D1B;" d="M140.063,141.212c0.04,1.005-1.567,1.005-1.527,0c0-1.005,0.04-1.969,0.121-2.974
		c0.08-0.844,1.206-0.844,1.286,0C140.023,139.243,140.063,140.208,140.063,141.212z"/>
	<path style="fill:#F9B233;" d="M110.486,62.891c18.405,7.233,23.509,27.929,15.311,42.316c-0.08,0.12-0.121,0.201-0.201,0.322
		c-3.657,6.229-9.765,11.252-18.485,13.422c-24.112,5.946-33.274-19.933-26.684-38.62c0.321-0.201,0.442-0.603,0.362-0.964
		c4.179-10.89,13.864-19.048,29.255-16.356C110.205,63.011,110.325,62.971,110.486,62.891z M120.251,80.934
		c0.161-2.974-2.13-5.345-4.983-5.827c-0.321-0.08-0.482,0.402-0.121,0.482c2.572,0.563,3.978,2.813,3.938,5.345
		C119.086,81.698,120.211,81.698,120.251,80.934z M93.447,110.068c0.683,0.201,0.965-0.844,0.321-1.085
		c-1.889-0.683-3.376-1.929-4.34-3.657c-0.322-0.603-1.246-0.04-0.924,0.563C89.59,107.979,91.197,109.385,93.447,110.068z
		 M89.911,111.756c0.763,0.161,1.085-0.964,0.321-1.206c-2.451-0.804-4.38-2.652-5.063-5.144c-0.201-0.643-1.165-0.362-1.045,0.281
		C84.687,108.742,86.857,111.113,89.911,111.756z"/>
	<path style="fill:#1D1D1B;" d="M126.118,161.466c0.522-0.08,0.764,0.683,0.241,0.764c-1.849,0.362-3.697,0.643-5.546,0.964
		c-0.402,0.04-0.603-0.563-0.201-0.643C122.462,162.149,124.31,161.788,126.118,161.466z"/>
	<path style="fill:#1D1D1B;" d="M125.355,165.927c0.523,0.08,0.402,1.005-0.12,0.924c-1.366-0.161-2.773-0.402-4.139-0.603
		c-0.482-0.08-0.362-0.924,0.12-0.884C122.582,165.525,123.989,165.726,125.355,165.927z"/>
	<path style="fill:#1D1D1B;" d="M115.268,75.107c2.853,0.482,5.144,2.853,4.983,5.827c-0.04,0.764-1.165,0.764-1.165,0
		c0.04-2.532-1.366-4.782-3.938-5.345C114.786,75.509,114.947,75.027,115.268,75.107z"/>
	<path style="fill:#1D1D1B;" d="M93.769,108.983c0.643,0.241,0.362,1.286-0.321,1.085c-2.25-0.683-3.858-2.09-4.943-4.179
		c-0.322-0.603,0.603-1.165,0.924-0.563C90.393,107.055,91.88,108.3,93.769,108.983z"/>
	<path style="fill:#1D1D1B;" d="M90.233,110.551c0.764,0.241,0.442,1.366-0.321,1.206c-3.054-0.643-5.224-3.014-5.787-6.068
		c-0.12-0.643,0.844-0.924,1.045-0.281C85.852,107.898,87.781,109.747,90.233,110.551z"/>
	<path style="fill:#1D1D1B;" d="M81.713,169.704c0.763,0.12,0.603,1.447-0.201,1.366c-2.733-0.281-5.465-0.683-8.198-1.085
		c-0.763-0.121-0.603-1.487,0.201-1.366C76.248,168.941,78.981,169.262,81.713,169.704z"/>
	<path style="fill:#1D1D1B;" d="M81.512,10.609c0.683,0.04,0.683,1.005,0,1.045c-2.17,0.121-4.099-0.241-6.148-1.005
		c-0.603-0.241-0.362-1.246,0.281-1.045C77.574,10.247,79.543,10.529,81.512,10.609z"/>
	<path style="fill:#1D1D1B;" d="M63.991,48.665c0.241-0.683,1.286-0.402,1.085,0.322c-0.241,1.045-0.603,2.009-0.964,3.014
		c-0.241,0.683-1.286,0.402-1.085-0.281C63.308,50.674,63.59,49.669,63.991,48.665z"/>
	<path style="fill:#1D1D1B;" d="M59.933,47.499c0.281-0.643,1.326-0.201,1.125,0.482c-0.442,1.406-0.683,2.853-0.643,4.34
		c0.04,0.643-1.045,0.804-1.125,0.161C59.008,50.674,59.169,49.147,59.933,47.499z"/>
	<path style="fill:#1D1D1B;" d="M43.055,41.271c0,0.04,0,0.121-0.04,0.201c-0.764,2.21-1.326,4.501-1.527,6.832
		c-0.08,0.844-1.366,0.844-1.326,0c0.04-1.286,0.201-2.572,0.442-3.778s0.643-2.411,1.165-3.617
		C42.05,40.306,43.055,40.668,43.055,41.271z"/>
	<path style="fill:#1D1D1B;" d="M39.599,40.065c0.161-0.683,1.366-0.563,1.246,0.161c-0.201,1.407-0.402,2.813-0.643,4.22
		c-0.281,1.326-0.522,2.692-0.804,4.019c-0.161,0.924-1.487,0.522-1.366-0.362C38.473,45.41,38.956,42.717,39.599,40.065z"/>
	<path style="fill:#1D1D1B;" d="M36.303,118.507c0.12-0.643,1.045-0.362,0.964,0.241c-0.321,2.17-0.643,4.34-1.045,6.51
		c-0.08,0.643-1.005,0.362-0.924-0.241C35.58,122.848,35.942,120.678,36.303,118.507z"/>
	<path style="fill:#1D1D1B;" d="M35.419,171.593c0.402,0.08,0.321,0.804-0.121,0.763c-1.889-0.241-3.777-0.603-5.626-0.964
		c-0.563-0.08-0.321-0.884,0.201-0.804C31.722,170.87,33.571,171.191,35.419,171.593z"/>
	<path style="fill:#1D1D1B;" d="M33.29,173.2c0.924,0.08,0.924,1.366,0,1.407c-3.697,0.161-7.515-0.563-11.132-1.326
		c-0.563-0.121-0.442-1.045,0.121-0.964C25.936,172.798,29.633,172.839,33.29,173.2z"/>
	<path style="fill:#1D1D1B;" d="M32.526,115.534c0.08-0.442,0.804-0.321,0.764,0.08c-0.161,1.407-0.321,2.773-0.522,4.139
		c-0.08,0.402-0.764,0.281-0.723-0.121C32.164,118.266,32.325,116.9,32.526,115.534z"/>
</g>
<g>
</g>
<g>
</g>
<g>
</g>
<g>
</g>
<g>
</g>
<g>
</g>
<g>
</g>
<g>
</g>
<g>
</g>
<g>
</g>
<g>
</g>
<g>
</g>
<g>
</g>
<g>
</g>
<g>
</g>
</svg>
